<svg width="32" height="32" viewBox="0 0 32 32" fill="none" xmlns="http://www.w3.org/2000/svg">
<path d="M14.88 19.1202C14.9 16.5602 15.66 15.7802 16.92 15.0002C17.76 14.4802 18.4 13.7602 18.4 12.7202C18.4 11.5202 17.46 10.7402 16.28 10.7202C15.22 10.7402 14.2 11.3802 14.12 12.8402H12C12.08 10.3402 13.96 8.98022 16.28 9.00022C18.82 8.98022 20.52 10.5002 20.52 12.7602C20.52 14.3002 19.76 15.3602 18.52 16.1202C17.36 16.8202 16.9 17.5402 16.88 19.1202V19.2402H14.88V19.1202ZM14.56 22.0802C14.56 21.3002 15.2 20.6802 15.96 20.6802C16.7 20.6802 17.34 21.3002 17.32 22.0802C17.34 22.8402 16.7 23.4602 15.96 23.4402C15.2 23.4602 14.56 22.8402 14.56 22.0802Z" fill="#6377DD"/>
<circle cx="16" cy="16" r="15.6" stroke="#CCCAD1" stroke-width="0.8"/>
</svg>
