<svg width="79" height="18" viewBox="0 0 79 18" fill="none" xmlns="http://www.w3.org/2000/svg">
<path d="M6.58541 17.338C3.15341 17.338 0.501414 15.31 0.501414 10.76V-0.00400114H4.71341V10.76C4.71341 12.736 5.67541 13.438 6.94941 13.438C8.19741 13.438 9.18541 12.736 9.18541 10.76V-0.00400114H13.3974V10.76C13.3974 12.736 14.3854 13.438 15.6334 13.438C16.9074 13.438 17.8694 12.736 17.8694 10.76V-0.00400114H22.0814V10.76C22.0814 15.31 19.4294 17.338 15.9974 17.338C13.9434 17.338 12.3054 16.532 11.2914 14.998C10.2774 16.532 8.63941 17.338 6.58541 17.338ZM25.1649 17V-0.00400114H37.7229V3.896H29.3769V6.678H36.2149V10.058H29.3769V13.1H37.7229V17H25.1649ZM40.6531 17V-0.00400114H47.3351C51.9631 -0.00400114 54.0171 2.518 54.0171 5.976C54.0171 9.434 51.9631 11.982 47.3351 11.982H44.8651V17H40.6531ZM44.8651 8.082H47.4131C49.2071 8.082 49.7531 7.198 49.7531 5.976C49.7531 4.78 49.2071 3.896 47.4131 3.896H44.8651V8.082ZM56.2938 17V-0.00400114H60.5058V17H56.2938ZM63.9871 17V-0.00400114H68.1991V6.938L73.1391 -0.00400114H78.3391L71.9171 8.316L78.5991 17H73.2691L68.1991 9.85V17H63.9871Z" fill="#676767"/>
</svg>
