<svg width="21" height="21" viewBox="0 0 21 21" fill="none" xmlns="http://www.w3.org/2000/svg">
<path d="M19 8.3V16C19 18.2091 17.2091 20 15 20H5C2.79086 20 1 18.2091 1 16V6C1 3.79086 2.79086 2 5 2H12.7" stroke="#6377DD" stroke-width="1.25" stroke-linecap="round" stroke-linejoin="round"/>
<path d="M10.2832 13.2601C9.9653 13.578 9.54961 13.7795 9.10316 13.8321L6.90798 14.091L7.14567 11.881C7.19449 11.4271 7.39716 11.0035 7.71999 10.6807L17.115 1.28564C17.8251 0.575597 18.9763 0.575598 19.6863 1.28564V1.28564C20.3964 1.99569 20.3964 3.1469 19.6863 3.85694L10.2832 13.2601Z" stroke="#6377DD" stroke-width="1.25" stroke-linejoin="round"/>
</svg>
