<svg width="25" height="26" viewBox="0 0 25 26" fill="none" xmlns="http://www.w3.org/2000/svg">
<path d="M23 10.7V21C23 23.2091 21.2091 25 19 25H5C2.79086 25 1 23.2091 1 21V7C1 4.79086 2.79086 3 5 3H15.3" stroke="black" stroke-width="1.25" stroke-linecap="round" stroke-linejoin="round"/>
<path d="M12.0566 17.0166C11.7387 17.3345 11.323 17.536 10.8766 17.5886L8.09964 17.9161L8.40049 15.1189C8.44931 14.665 8.65197 14.2414 8.9748 13.9186L20.496 2.39739C21.2771 1.61634 22.5434 1.61634 23.3244 2.39739L23.5859 2.65885C24.367 3.4399 24.367 4.70623 23.5859 5.48727L12.0566 17.0166Z" stroke="black" stroke-width="1.25" stroke-linejoin="round"/>
</svg>
