<svg width="24" height="24" viewBox="0 0 24 24" fill="none" xmlns="http://www.w3.org/2000/svg">
<circle cx="12" cy="12" r="11" stroke="#65656D" stroke-width="1.25"/>
<path d="M4.35498 19.9093L3.8726 19.5119L3.50556 19.9574L3.92057 20.3586L4.35498 19.9093ZM19.6446 19.9094L20.079 20.3587L20.494 19.9575L20.127 19.512L19.6446 19.9094ZM4.83737 20.3067C6.53949 18.2406 9.11571 16.925 11.9997 16.925V15.675C8.72655 15.675 5.80198 17.1699 3.8726 19.5119L4.83737 20.3067ZM11.9997 16.925C14.8838 16.925 17.4601 18.2406 19.1622 20.3068L20.127 19.512C18.1976 17.1699 15.273 15.675 11.9997 15.675V16.925ZM19.2102 19.46C17.3428 21.2652 14.8016 22.375 11.9998 22.375V23.625C15.1386 23.625 17.9879 22.3802 20.079 20.3587L19.2102 19.46ZM11.9998 22.375C9.19804 22.375 6.65674 21.2652 4.78939 19.4599L3.92057 20.3586C6.01161 22.3802 8.86099 23.625 11.9998 23.625V22.375Z" fill="#65656D"/>
<circle cx="12" cy="10" r="4" stroke="#65656D" stroke-width="1.25"/>
</svg>
